<svg width="141" height="32" viewBox="0 0 141 32" fill="none" xmlns="http://www.w3.org/2000/svg">
<g clip-path="url(#clip0_45811_903)">
<path fill-rule="evenodd" clip-rule="evenodd" d="M26 1.25H6C3.37665 1.25 1.25 3.37665 1.25 6V26C1.25 28.6234 3.37665 30.75 6 30.75H26C28.6234 30.75 30.75 28.6234 30.75 26V6C30.75 3.37665 28.6234 1.25 26 1.25ZM6 0C2.68629 0 0 2.68629 0 6V26C0 29.3137 2.68629 32 6 32H26C29.3137 32 32 29.3137 32 26V6C32 2.68629 29.3137 0 26 0H6Z" fill="white"/>
<path d="M8 7.9989H11.2V11.1989H14.4V14.3989H17.6V17.5989L14.4 17.5989V20.7989L11.2 20.7989V23.9989H8V17.5989L11.2 17.5989V14.3989H8V7.9989Z" fill="white"/>
<path d="M17.6 20.7989V17.5989L20.8 17.5989V20.7989L17.6 20.7989Z" fill="white"/>
<path d="M20.8 20.7989H24V23.9989H20.8V20.7989Z" fill="white"/>
<path d="M17.6 20.7989L14.4 20.7989V23.9989H17.6L17.6 20.7989Z" fill="white"/>
<path d="M20.8 17.5989L20.8 14.3989H17.6L17.6 11.1989H14.4V7.9989H20.8V11.1989H24V17.5989H20.8Z" fill="white"/>
<path d="M49.86 22L49.845 15.715L46.755 20.89H45.675L42.585 15.835V22H40.305V11.5H42.315L46.245 18.025L50.115 11.5H52.125L52.14 22H49.86Z" fill="white"/>
<path d="M58.3484 22.12C57.4984 22.12 56.7334 21.945 56.0534 21.595C55.3834 21.235 54.8584 20.74 54.4784 20.11C54.0984 19.48 53.9084 18.765 53.9084 17.965C53.9084 17.165 54.0984 16.45 54.4784 15.82C54.8584 15.19 55.3834 14.7 56.0534 14.35C56.7334 13.99 57.4984 13.81 58.3484 13.81C59.1984 13.81 59.9584 13.99 60.6284 14.35C61.2984 14.7 61.8234 15.19 62.2034 15.82C62.5834 16.45 62.7734 17.165 62.7734 17.965C62.7734 18.765 62.5834 19.48 62.2034 20.11C61.8234 20.74 61.2984 21.235 60.6284 21.595C59.9584 21.945 59.1984 22.12 58.3484 22.12ZM58.3484 20.2C58.9484 20.2 59.4384 20 59.8184 19.6C60.2084 19.19 60.4034 18.645 60.4034 17.965C60.4034 17.285 60.2084 16.745 59.8184 16.345C59.4384 15.935 58.9484 15.73 58.3484 15.73C57.7484 15.73 57.2534 15.935 56.8634 16.345C56.4734 16.745 56.2784 17.285 56.2784 17.965C56.2784 18.645 56.4734 19.19 56.8634 19.6C57.2534 20 57.7484 20.2 58.3484 20.2Z" fill="white"/>
<path d="M73.3106 20.08V23.74H71.1356V22H65.4656V23.74H63.2906V20.08H63.6206C64.1206 20.07 64.4656 19.775 64.6556 19.195C64.8456 18.615 64.9656 17.79 65.0156 16.72L65.1206 13.93H72.1556V20.08H73.3106ZM67.1306 16.885C67.1006 17.705 67.0356 18.375 66.9356 18.895C66.8456 19.415 66.6706 19.8101 66.4106 20.08H69.8156V15.85H67.1756L67.1306 16.885Z" fill="white"/>
<path d="M82.8682 13.93L79.2232 22.495C78.8532 23.425 78.3932 24.08 77.8432 24.46C77.3032 24.84 76.6482 25.03 75.8782 25.03C75.4582 25.03 75.0432 24.965 74.6332 24.835C74.2232 24.705 73.8882 24.525 73.6282 24.295L74.4832 22.63C74.6632 22.79 74.8682 22.915 75.0982 23.005C75.3382 23.095 75.5732 23.14 75.8032 23.14C76.1232 23.14 76.3832 23.06 76.5832 22.9C76.7832 22.75 76.9632 22.495 77.1232 22.135L77.1532 22.06L73.6582 13.93H76.0732L78.3382 19.405L80.6182 13.93H82.8682Z" fill="white"/>
<path d="M91.1658 13.93V22H88.8258V15.85H86.2758L86.2008 17.275C86.1608 18.335 86.0608 19.215 85.9008 19.915C85.7408 20.615 85.4808 21.165 85.1208 21.565C84.7608 21.965 84.2608 22.165 83.6208 22.165C83.2808 22.165 82.8758 22.105 82.4058 21.985L82.5258 20.065C82.6858 20.085 82.8008 20.095 82.8708 20.095C83.2208 20.095 83.4808 19.97 83.6508 19.72C83.8308 19.46 83.9508 19.135 84.0108 18.745C84.0708 18.345 84.1158 17.82 84.1458 17.17L84.2658 13.93H91.1658Z" fill="white"/>
<path d="M97.781 16.51C98.831 16.52 99.636 16.76 100.196 17.23C100.756 17.69 101.036 18.345 101.036 19.195C101.036 20.085 100.721 20.78 100.091 21.28C99.471 21.77 98.596 22.015 97.466 22.015L93.416 22V13.93H95.741V16.51H97.781ZM97.256 20.35C97.706 20.36 98.051 20.265 98.291 20.065C98.531 19.865 98.651 19.565 98.651 19.165C98.651 18.775 98.531 18.49 98.291 18.31C98.061 18.13 97.716 18.035 97.256 18.025L95.741 18.01V20.35H97.256Z" fill="white"/>
<path d="M107.163 14.485C107.933 14.485 108.608 14.645 109.188 14.965C109.768 15.275 110.213 15.715 110.523 16.285C110.843 16.855 111.003 17.515 111.003 18.265C111.003 19.035 110.813 19.72 110.433 20.32C110.063 20.91 109.543 21.37 108.873 21.7C108.203 22.02 107.443 22.18 106.593 22.18C105.183 22.18 104.073 21.73 103.263 20.83C102.463 19.92 102.063 18.59 102.063 16.84C102.063 15.22 102.413 13.93 103.113 12.97C103.823 12 104.908 11.365 106.368 11.065L110.208 10.3L110.523 12.31L107.133 12.985C106.213 13.165 105.528 13.465 105.078 13.885C104.638 14.305 104.378 14.9 104.298 15.67C104.648 15.29 105.068 15 105.558 14.8C106.048 14.59 106.583 14.485 107.163 14.485ZM106.608 20.365C107.208 20.365 107.688 20.17 108.048 19.78C108.418 19.39 108.603 18.895 108.603 18.295C108.603 17.685 108.418 17.2 108.048 16.84C107.688 16.48 107.208 16.3 106.608 16.3C105.998 16.3 105.508 16.48 105.138 16.84C104.768 17.2 104.583 17.685 104.583 18.295C104.583 18.905 104.773 19.405 105.153 19.795C105.533 20.175 106.018 20.365 106.608 20.365Z" fill="white"/>
<path d="M115.594 13.81C116.844 13.81 117.804 14.11 118.474 14.71C119.144 15.3 119.479 16.195 119.479 17.395V22H117.289V20.995C116.849 21.745 116.029 22.12 114.829 22.12C114.209 22.12 113.669 22.015 113.209 21.805C112.759 21.595 112.414 21.305 112.174 20.935C111.934 20.565 111.814 20.145 111.814 19.675C111.814 18.925 112.094 18.335 112.654 17.905C113.224 17.475 114.099 17.26 115.279 17.26H117.139C117.139 16.75 116.984 16.36 116.674 16.09C116.364 15.81 115.899 15.67 115.279 15.67C114.849 15.67 114.424 15.74 114.004 15.88C113.594 16.01 113.244 16.19 112.954 16.42L112.114 14.785C112.554 14.475 113.079 14.235 113.689 14.065C114.309 13.895 114.944 13.81 115.594 13.81ZM115.414 20.545C115.814 20.545 116.169 20.455 116.479 20.275C116.789 20.085 117.009 19.81 117.139 19.45V18.625H115.534C114.574 18.625 114.094 18.94 114.094 19.57C114.094 19.87 114.209 20.11 114.439 20.29C114.679 20.46 115.004 20.545 115.414 20.545Z" fill="white"/>
<path d="M121.512 13.93H123.837V17.08H127.347V13.93H129.687V22H127.347V18.985H123.837V22H121.512V13.93Z" fill="white"/>
<path d="M135.482 18.94H134.267V22H131.927V13.93H134.267V17.065H135.527L137.717 13.93H140.207L137.387 17.8L140.402 22H137.642L135.482 18.94Z" fill="white"/>
</g>
<defs>
<clipPath id="clip0_45811_903">
<rect width="141" height="32" fill="white"/>
</clipPath>
</defs>
</svg>
