<svg width="21" height="21" viewBox="0 0 21 21" fill="none" xmlns="http://www.w3.org/2000/svg">
<path d="M2.09998 4.57104L4.64307 9.11667V11.8894L2.10295 16.4261L2.09998 4.57104Z" fill="#5B57A2"/>
<path d="M11.8645 7.46266L14.2475 6.00211L19.1244 5.99756L11.8645 10.445V7.46266Z" fill="#D90751"/>
<path d="M11.851 4.54422L11.8645 10.5625L9.31543 8.99622V0L11.8512 4.54422H11.851Z" fill="#FAB718"/>
<path d="M19.1243 5.99742L14.2473 6.00197L11.851 4.54422L9.31543 0L19.1242 5.99742H19.1243Z" fill="#ED6F26"/>
<path d="M11.8645 16.4512V13.5314L9.31543 11.9949L9.31683 21L11.8645 16.4512Z" fill="#63B22F"/>
<path d="M14.2415 15.004L4.6429 9.11667L2.09998 4.57104L19.114 14.9981L14.2413 15.004H14.2415Z" fill="#1487C9"/>
<path d="M9.31702 21L11.8643 16.4512L14.2413 15.004L19.1139 14.998L9.31702 21Z" fill="#017F36"/>
<path d="M2.10303 16.426L9.33629 11.995L6.9045 10.5029L4.64315 11.8893L2.10303 16.426Z" fill="#984995"/>
</svg>
